<svg id="Ebene_1" data-name="Ebene 1" xmlns="http://www.w3.org/2000/svg" viewBox="0 0 850.39 850.39"><defs><style>.cls-1{fill:#c44592;}.cls-2{fill:#ffed00;}.cls-3{fill:#312783;}.cls-4{fill:#fff;stroke:#1d1d1b;stroke-miterlimit:10;}</style></defs><title>Monster</title><g id="Monster"><path class="cls-1" d="M463.24,84l43.37,85.37,3.6,7.09c27.22,52,125,62.5,176.92,94.42,103.6,63.68,94.67,255.5,93.36,255.84-.55.14-6.11-32.55-19.11-33.82-12.84-1.26-24.88,28.89-30.88,26.47-5.27-2.14,2.85-26-4.76-30.27-7.16-4.06-22.36,12.53-24.64,10.42s13.27-20.9,19.72-31.61c25.95-43.12.3-118.89-39.57-163.94-52-58.75-135.44-73.56-139.68-65.77-1,1.84,2.24,5.35,3.41,6.7,15.08,17.37,64.8,111.81,178.76,351.88l-77.23-58.15s-22.09-20-41.13-10S477.49,632.82,477.49,632.82s-11.83,21.38-.7,43.22,48.32,90.36,48.32,90.36l-165.92-146S263.32,534.09,195.13,476c-1.14-2-2.28-2.63-3.26-2.77-15.3-2.23-70.3,115.61-34.68,158.92,25.21,30.63,84.14,9.8,146.53,51.15,13.68,9.07,23.47,18.44,22.11,20.85-1.88,3.3-23.49-8.75-29.69-1.9-5.55,6.13,5.71,22.47,1.9,25.26-4.89,3.58-26.57-20.94-31-17.68-4,3,10.55,25.8,6.31,29C270.59,741.08,262,732.7,250,725c-18.25-11.72-33.16-14.65-42.32-17.69-24.24-8-67.76-36.52-84.63-68.84-35.32-67.65,13.41-214.66,12.72-215.29l-.05,0-2.57-2.24Q84.71,378.6,59.66,356.84c4-6,9.8-14.54,17-24.63,15.23-21.21,31.48-43.83,53.05-66.32a388.17,388.17,0,0,1,60.64-51.16c21.74-15.16,27.07-15.9,94.73-51.15,64.33-33.52,67.51-36.13,92.84-47.37A805.35,805.35,0,0,1,463.24,84Z"/><path class="cls-2" d="M575.36,497.88c-17,12.36-43.56,14.75-49.13,5.59-7-11.53,17.59-44.14,47.56-54.4,6.18-2.11,16.87-5.77,21.72-1C603.31,455.76,594.6,483.87,575.36,497.88Z"/><path class="cls-2" d="M455.62,600.12c14.87-14.84,21.4-40.71,13.22-47.64-10.29-8.74-46.35,10.46-61.18,38.45-3.05,5.77-8.34,15.75-4.38,21.29C409.65,621.13,438.77,616.93,455.62,600.12Z"/><path class="cls-3" d="M539,421.49c-.24-8-55-26.37-100.39-4.53-67.07,32.25-75.76,133.8-70.88,135.74,3.66,1.45,12.24-54.12,62-91.81C480.85,422.16,539.21,429.79,539,421.49Z"/><path class="cls-2" d="M455.72,425.44c-.35-.5-2.09.77-6.92,2.19a57.85,57.85,0,0,1-20.77,2,75.24,75.24,0,0,1-24.21-6.25c-24.58-11.56-20.71-37.67-43.22-52.09-26.3-16.84-62-9.12-62.45-5.59-.36,2.77,20.64,6.61,20.15,10.37-.51,3.94-24,3.12-24.1,5.54s20.59,3.15,46.29,13.12c9.87,3.82,14.8,5.73,19.53,9.65,14,11.61,10.31,23.23,22.27,34.89,9.17,8.94,23,13.46,35.54,12.26C441.36,449.28,457,427.17,455.72,425.44Z"/><path class="cls-4" d="M525.08,423.77l-28.45-52.7,9.58,55.61-37.35-43.74,17.46,48-35.83-32.31,18.33,37.76-38.88-32.47,19.81,40.85L414,417.53l19.87,36.7-35.57-23.29L418.2,466.5l-39.06-19.21L406,478.75l-43.65-17.13,30.83,33.6-41.75-12,33.73,25-39.75-8L377,524.57S419.55,433.22,525.08,423.77Z"/><circle class="cls-3" cx="571.47" cy="485.21" r="7.08"/><circle class="cls-3" cx="444.59" cy="592.06" r="7.19"/></g></svg>