<svg id="Ebene_1" data-name="Ebene 1" xmlns="http://www.w3.org/2000/svg" viewBox="0 0 850.39 850.39"><defs><style>.cls-1{fill:#c44592;}.cls-2{fill:#ffed00;}.cls-3{fill:#312783;}.cls-4{fill:#fff;stroke:#1d1d1b;stroke-miterlimit:10;}.cls-5{fill:#3aaa35;}</style></defs><title>Monster</title><g id="Monster"><path class="cls-1" d="M188.45,481.74,270.82,95.18l21,94.37s3.81,29.55,24.78,34.32,164.92,3.81,164.92,3.81,22.88-8.58,28.6-32.41S532,95.18,532,95.18L597.54,474l1.14,7.93c0,2,.22,4.26.21,6.36,0,1.38,0,2.78,0,4.19-.16,33-.56,72.14-26.91,105.6-82.71,105.06-299.91,98.83-365.05-3.79C196.21,577.44,179.58,542.18,188.45,481.74Z"/><path class="cls-2" d="M319.7,266.75c20.94,1.63,42.7,17.06,41,27.65-2.16,13.32-42,22.14-71.5,10.48-6.07-2.4-16.57-6.56-17.16-13.34C271.09,280.63,296,264.91,319.7,266.75Z"/><path class="cls-2" d="M477.15,266.75c-20.94,1.63-42.7,17.06-41,27.65,2.15,13.32,42,22.14,71.49,10.48,6.07-2.4,16.58-6.56,17.16-13.34C525.75,280.63,500.88,264.91,477.15,266.75Z"/><path class="cls-3" d="M297.77,348.47c-22,15.9,8.75,153.66,80.91,165.74,79.95,13.4,150.55-137.6,134.53-154.3-9.53-9.94-45,32.5-106.76,29.55C342.72,386.41,312.38,337.92,297.77,348.47Z"/><path class="cls-2" d="M363.64,399.52c-.05.61,2.09.78,6.69,2.83a57.9,57.9,0,0,1,17.08,12,75.35,75.35,0,0,1,14.36,20.47c3.13,6.93,7.59,19.29,2,28.25-7.93,12.79-31.19,9.62-35.22,9-18.16-2.87-30.85-15-34.3-18.36-9.33-9-10.85-15.34-22.22-22.23a46.5,46.5,0,0,0-16.91-6.76c-3.78-.62-15.71-2-36.72,10.15-25.17,14.52-26.31,27-36.23,26.08-12.66-1.19-11.55-21.58-34.3-40.58-18-15-39.24-19.48-40.1-17.87-.53,1,6.27,5,5.32,7.44s-8.13.65-8.7,2.22c-1.1,3,25.09,8.63,42,27.54,16.06,17.91,11.26,33.73,23.19,37.68,11,3.65,25.12-6.49,43-19.32,13.84-9.94,20.69-18.1,32.86-17.88a31.43,31.43,0,0,1,15,4.35c7.16,4.37,9.09,10,14,16.91a84.81,84.81,0,0,0,21.74,19.8c18.11,11.54,37.5,10.93,42.52,10.63,10.7-.62,30.21-1.77,41.55-16.91,10.44-13.94,7.48-31.13,6.28-38.16s-3.89-22.58-17.17-32.47C390.72,390.37,363.84,397.35,363.64,399.52Z"/><path class="cls-4" d="M309.81,355.75l-12.59,58.56,28.83-48.51v57.52l17.89-47.84,6.26,47.84,10.58-40.63,8.49,49.95,11.46-43.93,9.51,43.93L399,391.83l11.92,40.81,8-40,17.22,40V391.27l22.07,41.37-1.63-45.57,23.95,36.25L471,382.41l25,31.9-8.16-39S396.2,417.09,309.81,355.75Z"/><circle class="cls-3" cx="291.81" cy="282.31" r="7.08"/><circle class="cls-3" cx="453.49" cy="285.23" r="7.19"/><path class="cls-5" d="M365.43,364.94c-12.68,6.93-26.53,3.36-28.2,2.83-13.67-4.32-22-15.18-24.31-18.14-6.15-8-6.58-13.08-14.55-19.72a36.25,36.25,0,0,0-12.25-7.18c-2.84-.91-11.88-3.35-29.49,3.56-21.11,8.27-23.43,17.77-31,15.9-10.21-2.53-6.4-20.92-21.74-35.28-13-12.18-31.47-13.72-32.57-11.38s17.2,7.83,29.21,26.12c10.3,15.68,4.76,27.31,13.5,31.75,8.06,4.09,20.13-2.09,35.4-9.91,11.82-6.05,18-11.55,27.41-10a24.69,24.69,0,0,1,11,5.09c5,4.2,5.85,8.75,8.84,14.67a66.11,66.11,0,0,0,14.46,17.8c12.62,11,27.64,12.78,31.54,13.14,6.82.62,23,2.18,34-8.21,1.72-1.63,8.23-8.18,8.75-17.66.11-2,.38-6.95-1.8-7.93C380.34,348.93,376.08,359.13,365.43,364.94Z"/><path class="cls-5" d="M425.22,366.91c12.68,6.93,26.53,3.36,28.19,2.83,13.67-4.32,22-15.18,24.32-18.14,6.15-8,6.58-13.08,14.55-19.72a36.32,36.32,0,0,1,12.25-7.18c2.84-.91,11.88-3.35,29.49,3.56,21.1,8.27,23.43,17.77,31,15.9,10.2-2.53,6.39-20.92,21.73-35.27,13-12.19,31.48-13.73,32.57-11.39s-17.19,7.83-29.2,26.12c-10.3,15.68-4.76,27.31-13.5,31.75-8.07,4.09-20.13-2.09-35.4-9.9-11.82-6.06-18.05-11.56-27.41-10a24.63,24.63,0,0,0-11,5.09c-5,4.2-5.85,8.76-8.84,14.67a66.11,66.11,0,0,1-14.46,17.8c-12.62,11-27.65,12.78-31.55,13.14-6.82.62-23,2.18-34-8.21-1.72-1.63-8.23-8.18-8.75-17.66-.11-2-.38-6.95,1.8-7.93C410.31,350.9,414.57,361.1,425.22,366.91Z"/></g></svg>